# xmcd CD database file
#
# Track frame offsets:
#	150
#	10750
#	32045
#	46730
#
# Disc length: 885 seconds
#
# Revision: 0
# Processed by: cddbd v1.5.1PL0 Copyright (c) Steve Scherf et al.
# Submitted via: CDex 1.51
#
DISCID=22037304
DTITLE=Come Back My Daughters - Weekend Milestone
DYEAR=2002
DGENRE=Rock
TTITLE0=Fully Closed And Naked
TTITLE1=Bright Midnight
TTITLE2=Get Back
TTITLE3=My Empathy
EXTD=YEAR: 2002
EXTT0=
EXTT1=
EXTT2=
EXTT3=
PLAYORDER=
